# Generated by games/living-kingdoms/assets/visual/weapon/basic-firearm/generate_blackwater_carbine.py
# VIS-0102 Blackwater Service Carbine source candidate

o Receiver
v -0.160000 -0.080000 -0.100000 0.172549 0.188235 0.192157
v -0.160000 -0.080000 0.100000 0.172549 0.188235 0.192157
v -0.160000 0.080000 -0.100000 0.172549 0.188235 0.192157
v -0.160000 0.080000 0.100000 0.172549 0.188235 0.192157
v 0.260000 -0.080000 -0.100000 0.172549 0.188235 0.192157
v 0.260000 -0.080000 0.100000 0.172549 0.188235 0.192157
v 0.260000 0.080000 -0.100000 0.172549 0.188235 0.192157
v 0.260000 0.080000 0.100000 0.172549 0.188235 0.192157
f 2 4 1
f 5 2 1
f 1 4 3
f 3 5 1
f 2 8 4
f 6 2 5
f 6 8 2
f 4 8 3
f 7 5 3
f 3 8 7
f 7 6 5
f 8 6 7

o Handguard
v 0.240000 -0.070000 -0.070000 0.243137 0.262745 0.192157
v 0.240000 -0.070000 0.090000 0.243137 0.262745 0.192157
v 0.240000 0.070000 -0.070000 0.243137 0.262745 0.192157
v 0.240000 0.070000 0.090000 0.243137 0.262745 0.192157
v 0.620000 -0.070000 -0.070000 0.243137 0.262745 0.192157
v 0.620000 -0.070000 0.090000 0.243137 0.262745 0.192157
v 0.620000 0.070000 -0.070000 0.243137 0.262745 0.192157
v 0.620000 0.070000 0.090000 0.243137 0.262745 0.192157
f 10 12 9
f 13 10 9
f 9 12 11
f 11 13 9
f 10 16 12
f 14 10 13
f 14 16 10
f 12 16 11
f 15 13 11
f 11 16 15
f 15 14 13
f 16 14 15

o StockCore
v -0.410000 -0.060000 -0.050000 0.333333 0.356863 0.254902
v -0.410000 -0.060000 0.080000 0.333333 0.356863 0.254902
v -0.410000 0.060000 -0.050000 0.333333 0.356863 0.254902
v -0.410000 0.060000 0.080000 0.333333 0.356863 0.254902
v -0.150000 -0.060000 -0.050000 0.333333 0.356863 0.254902
v -0.150000 -0.060000 0.080000 0.333333 0.356863 0.254902
v -0.150000 0.060000 -0.050000 0.333333 0.356863 0.254902
v -0.150000 0.060000 0.080000 0.333333 0.356863 0.254902
f 18 20 17
f 21 18 17
f 17 20 19
f 19 21 17
f 18 24 20
f 22 18 21
f 22 24 18
f 20 24 19
f 23 21 19
f 19 24 23
f 23 22 21
f 24 22 23

o Buttstock
v -0.580000 -0.070000 -0.070000 0.333333 0.356863 0.254902
v -0.580000 -0.070000 0.150000 0.333333 0.356863 0.254902
v -0.580000 0.070000 -0.070000 0.333333 0.356863 0.254902
v -0.580000 0.070000 0.150000 0.333333 0.356863 0.254902
v -0.360000 -0.070000 -0.140000 0.333333 0.356863 0.254902
v -0.360000 -0.070000 0.080000 0.333333 0.356863 0.254902
v -0.360000 0.070000 -0.140000 0.333333 0.356863 0.254902
v -0.360000 0.070000 0.080000 0.333333 0.356863 0.254902
f 26 28 25
f 29 26 25
f 25 28 27
f 27 29 25
f 26 32 28
f 30 26 29
f 30 32 26
f 28 32 27
f 31 29 27
f 27 32 31
f 31 30 29
f 32 30 31

o Barrel
v 0.545000 0.000000 0.068000 0.113725 0.125490 0.129412
v 0.545000 0.014542 0.065107 0.113725 0.125490 0.129412
v 0.545000 0.026870 0.056870 0.113725 0.125490 0.129412
v 0.545000 0.035107 0.044542 0.113725 0.125490 0.129412
v 0.545000 0.038000 0.030000 0.113725 0.125490 0.129412
v 0.545000 0.035107 0.015458 0.113725 0.125490 0.129412
v 0.545000 0.026870 0.003130 0.113725 0.125490 0.129412
v 0.545000 0.014542 -0.005107 0.113725 0.125490 0.129412
v 0.545000 0.000000 -0.008000 0.113725 0.125490 0.129412
v 0.545000 -0.014542 -0.005107 0.113725 0.125490 0.129412
v 0.545000 -0.026870 0.003130 0.113725 0.125490 0.129412
v 0.545000 -0.035107 0.015458 0.113725 0.125490 0.129412
v 0.545000 -0.038000 0.030000 0.113725 0.125490 0.129412
v 0.545000 -0.035107 0.044542 0.113725 0.125490 0.129412
v 0.545000 -0.026870 0.056870 0.113725 0.125490 0.129412
v 0.545000 -0.014542 0.065107 0.113725 0.125490 0.129412
v 0.975000 0.000000 0.068000 0.113725 0.125490 0.129412
v 0.975000 0.014542 0.065107 0.113725 0.125490 0.129412
v 0.975000 0.026870 0.056870 0.113725 0.125490 0.129412
v 0.975000 0.035107 0.044542 0.113725 0.125490 0.129412
v 0.975000 0.038000 0.030000 0.113725 0.125490 0.129412
v 0.975000 0.035107 0.015458 0.113725 0.125490 0.129412
v 0.975000 0.026870 0.003130 0.113725 0.125490 0.129412
v 0.975000 0.014542 -0.005107 0.113725 0.125490 0.129412
v 0.975000 0.000000 -0.008000 0.113725 0.125490 0.129412
v 0.975000 -0.014542 -0.005107 0.113725 0.125490 0.129412
v 0.975000 -0.026870 0.003130 0.113725 0.125490 0.129412
v 0.975000 -0.035107 0.015458 0.113725 0.125490 0.129412
v 0.975000 -0.038000 0.030000 0.113725 0.125490 0.129412
v 0.975000 -0.035107 0.044542 0.113725 0.125490 0.129412
v 0.975000 -0.026870 0.056870 0.113725 0.125490 0.129412
v 0.975000 -0.014542 0.065107 0.113725 0.125490 0.129412
f 33 49 34
f 34 49 50
f 34 50 35
f 35 50 51
f 35 51 36
f 36 51 52
f 36 52 37
f 37 52 53
f 37 53 38
f 38 53 54
f 38 54 39
f 39 54 55
f 39 55 40
f 40 55 56
f 40 56 41
f 41 56 57
f 41 57 42
f 42 57 58
f 42 58 43
f 43 58 59
f 43 59 44
f 44 59 60
f 44 60 45
f 45 60 61
f 45 61 46
f 46 61 62
f 46 62 47
f 47 62 63
f 47 63 48
f 48 63 64
f 48 64 33
f 33 64 49

o MuzzleDevice
v 0.975000 0.000000 0.082000 0.364706 0.384314 0.376471
v 0.975000 0.019899 0.078042 0.364706 0.384314 0.376471
v 0.975000 0.036770 0.066770 0.364706 0.384314 0.376471
v 0.975000 0.048042 0.049899 0.364706 0.384314 0.376471
v 0.975000 0.052000 0.030000 0.364706 0.384314 0.376471
v 0.975000 0.048042 0.010101 0.364706 0.384314 0.376471
v 0.975000 0.036770 -0.006770 0.364706 0.384314 0.376471
v 0.975000 0.019899 -0.018042 0.364706 0.384314 0.376471
v 0.975000 0.000000 -0.022000 0.364706 0.384314 0.376471
v 0.975000 -0.019899 -0.018042 0.364706 0.384314 0.376471
v 0.975000 -0.036770 -0.006770 0.364706 0.384314 0.376471
v 0.975000 -0.048042 0.010101 0.364706 0.384314 0.376471
v 0.975000 -0.052000 0.030000 0.364706 0.384314 0.376471
v 0.975000 -0.048042 0.049899 0.364706 0.384314 0.376471
v 0.975000 -0.036770 0.066770 0.364706 0.384314 0.376471
v 0.975000 -0.019899 0.078042 0.364706 0.384314 0.376471
v 1.075000 0.000000 0.082000 0.364706 0.384314 0.376471
v 1.075000 0.019899 0.078042 0.364706 0.384314 0.376471
v 1.075000 0.036770 0.066770 0.364706 0.384314 0.376471
v 1.075000 0.048042 0.049899 0.364706 0.384314 0.376471
v 1.075000 0.052000 0.030000 0.364706 0.384314 0.376471
v 1.075000 0.048042 0.010101 0.364706 0.384314 0.376471
v 1.075000 0.036770 -0.006770 0.364706 0.384314 0.376471
v 1.075000 0.019899 -0.018042 0.364706 0.384314 0.376471
v 1.075000 0.000000 -0.022000 0.364706 0.384314 0.376471
v 1.075000 -0.019899 -0.018042 0.364706 0.384314 0.376471
v 1.075000 -0.036770 -0.006770 0.364706 0.384314 0.376471
v 1.075000 -0.048042 0.010101 0.364706 0.384314 0.376471
v 1.075000 -0.052000 0.030000 0.364706 0.384314 0.376471
v 1.075000 -0.048042 0.049899 0.364706 0.384314 0.376471
v 1.075000 -0.036770 0.066770 0.364706 0.384314 0.376471
v 1.075000 -0.019899 0.078042 0.364706 0.384314 0.376471
f 65 81 66
f 66 81 82
f 66 82 67
f 67 82 83
f 67 83 68
f 68 83 84
f 68 84 69
f 69 84 85
f 69 85 70
f 70 85 86
f 70 86 71
f 71 86 87
f 71 87 72
f 72 87 88
f 72 88 73
f 73 88 89
f 73 89 74
f 74 89 90
f 74 90 75
f 75 90 91
f 75 91 76
f 76 91 92
f 76 92 77
f 77 92 93
f 77 93 78
f 78 93 94
f 78 94 79
f 79 94 95
f 79 95 80
f 80 95 96
f 80 96 65
f 65 96 81

o PistolGrip
v -0.070000 -0.045000 -0.280000 0.133333 0.137255 0.125490
v -0.070000 -0.045000 -0.040000 0.133333 0.137255 0.125490
v -0.070000 0.045000 -0.280000 0.133333 0.137255 0.125490
v -0.070000 0.045000 -0.040000 0.133333 0.137255 0.125490
v 0.030000 -0.045000 -0.200000 0.133333 0.137255 0.125490
v 0.030000 -0.045000 0.040000 0.133333 0.137255 0.125490
v 0.030000 0.045000 -0.200000 0.133333 0.137255 0.125490
v 0.030000 0.045000 0.040000 0.133333 0.137255 0.125490
f 98 100 97
f 101 98 97
f 97 100 99
f 99 101 97
f 98 104 100
f 102 98 101
f 102 104 98
f 100 104 99
f 103 101 99
f 99 104 103
f 103 102 101
f 104 102 103

o Magazine
v 0.105000 -0.052500 -0.320000 0.333333 0.356863 0.254902
v 0.105000 -0.052500 -0.060000 0.333333 0.356863 0.254902
v 0.105000 0.052500 -0.320000 0.333333 0.356863 0.254902
v 0.105000 0.052500 -0.060000 0.333333 0.356863 0.254902
v 0.275000 -0.052500 -0.400000 0.333333 0.356863 0.254902
v 0.275000 -0.052500 -0.140000 0.333333 0.356863 0.254902
v 0.275000 0.052500 -0.400000 0.333333 0.356863 0.254902
v 0.275000 0.052500 -0.140000 0.333333 0.356863 0.254902
f 106 108 105
f 109 106 105
f 105 108 107
f 107 109 105
f 106 112 108
f 110 106 109
f 110 112 106
f 108 112 107
f 111 109 107
f 107 112 111
f 111 110 109
f 112 110 111

o Bolt
v -0.015000 -0.107500 -0.010000 0.364706 0.384314 0.376471
v -0.015000 -0.107500 0.050000 0.364706 0.384314 0.376471
v -0.015000 -0.082500 -0.010000 0.364706 0.384314 0.376471
v -0.015000 -0.082500 0.050000 0.364706 0.384314 0.376471
v 0.155000 -0.107500 -0.010000 0.364706 0.384314 0.376471
v 0.155000 -0.107500 0.050000 0.364706 0.384314 0.376471
v 0.155000 -0.082500 -0.010000 0.364706 0.384314 0.376471
v 0.155000 -0.082500 0.050000 0.364706 0.384314 0.376471
f 114 116 113
f 117 114 113
f 113 116 115
f 115 117 113
f 114 120 116
f 118 114 117
f 118 120 114
f 116 120 115
f 119 117 115
f 115 120 119
f 119 118 117
f 120 118 119

o TopRail
v -0.085000 -0.015000 0.112500 0.113725 0.125490 0.129412
v -0.085000 -0.015000 0.137500 0.113725 0.125490 0.129412
v -0.085000 0.015000 0.112500 0.113725 0.125490 0.129412
v -0.085000 0.015000 0.137500 0.113725 0.125490 0.129412
v 0.225000 -0.015000 0.112500 0.113725 0.125490 0.129412
v 0.225000 -0.015000 0.137500 0.113725 0.125490 0.129412
v 0.225000 0.015000 0.112500 0.113725 0.125490 0.129412
v 0.225000 0.015000 0.137500 0.113725 0.125490 0.129412
f 122 124 121
f 125 122 121
f 121 124 123
f 123 125 121
f 122 128 124
f 126 122 125
f 126 128 122
f 124 128 123
f 127 125 123
f 123 128 127
f 127 126 125
f 128 126 127

o RearSight
v 0.175000 -0.035000 0.142500 0.113725 0.125490 0.129412
v 0.175000 -0.035000 0.237500 0.113725 0.125490 0.129412
v 0.175000 0.035000 0.142500 0.113725 0.125490 0.129412
v 0.175000 0.035000 0.237500 0.113725 0.125490 0.129412
v 0.245000 -0.035000 0.142500 0.113725 0.125490 0.129412
v 0.245000 -0.035000 0.237500 0.113725 0.125490 0.129412
v 0.245000 0.035000 0.142500 0.113725 0.125490 0.129412
v 0.245000 0.035000 0.237500 0.113725 0.125490 0.129412
f 130 132 129
f 133 130 129
f 129 132 131
f 131 133 129
f 130 136 132
f 134 130 133
f 134 136 130
f 132 136 131
f 135 133 131
f 131 136 135
f 135 134 133
f 136 134 135

o FrontSight
v 0.692500 -0.032500 0.105000 0.113725 0.125490 0.129412
v 0.692500 -0.032500 0.215000 0.113725 0.125490 0.129412
v 0.692500 0.032500 0.105000 0.113725 0.125490 0.129412
v 0.692500 0.032500 0.215000 0.113725 0.125490 0.129412
v 0.747500 -0.032500 0.105000 0.113725 0.125490 0.129412
v 0.747500 -0.032500 0.215000 0.113725 0.125490 0.129412
v 0.747500 0.032500 0.105000 0.113725 0.125490 0.129412
v 0.747500 0.032500 0.215000 0.113725 0.125490 0.129412
f 138 140 137
f 141 138 137
f 137 140 139
f 139 141 137
f 138 144 140
f 142 138 141
f 142 144 138
f 140 144 139
f 143 141 139
f 139 144 143
f 143 142 141
f 144 142 143

o Trigger
v 0.007500 -0.010000 -0.160000 0.603922 0.466667 0.196078
v 0.007500 -0.010000 -0.080000 0.603922 0.466667 0.196078
v 0.007500 0.010000 -0.160000 0.603922 0.466667 0.196078
v 0.007500 0.010000 -0.080000 0.603922 0.466667 0.196078
v 0.032500 -0.010000 -0.160000 0.603922 0.466667 0.196078
v 0.032500 -0.010000 -0.080000 0.603922 0.466667 0.196078
v 0.032500 0.010000 -0.160000 0.603922 0.466667 0.196078
v 0.032500 0.010000 -0.080000 0.603922 0.466667 0.196078
f 146 148 145
f 149 146 145
f 145 148 147
f 147 149 145
f 146 152 148
f 150 146 149
f 150 152 146
f 148 152 147
f 151 149 147
f 147 152 151
f 151 150 149
f 152 150 151
